# xmcd CD database file
#
# Track frame offsets:
#	225
#	13979
#	27867
#	41109
#	55147
#	68161
#	82637
#	96035
#	106796
#	118312
#	131463
#	144729
#	157301
#	170035
#	183974
#	197328
#	210985
#	224056
#	237487
#	252038
#	265639
#	277809
#	290707
#	304836
#	318297
#
# Disc length: 4396 seconds
#
# Revision: 0
# Processed by: cddbd v1.4PL0 Copyright (c) Steve Scherf et al.
# Submitted via: CDex 1.51
#
DISCID=6d112919
DTITLE=Stewart, Slam et. al - The Continental Sessions Volume 1
DYEAR=1900
DGENRE=Jazz
TTITLE0=Ellis Island - Hall, Edmond And His Cafe Society...
TTITLE1=Continental Blues - Hall, Edmond And His Cafe Society...
TTITLE2=Lonely Moments - Hall, Edmond And His Cafe Society...
TTITLE3=Face - Hall, Edmond And His Cafe Society...
TTITLE4=What's The Matter Now? - Hart, Clyde's All Stars
TTITLE5=I Want Every Bit Of It - Hart, Clyde's All Stars
TTITLE6=That's The Blues - Hart, Clyde's All Stars
TTITLE7=4-F Blues - Hart, Clyde's All Stars
TTITLE8=4-F Blues-Alt - Hart, Clyde's All Stars
TTITLE9=Dream Of You - Hart, Clyde's All Stars
TTITLE10=Seventh Avenue - Hart, Clyde's All Stars
TTITLE11=Sorta Kinda - Hart, Clyde's All Stars
TTITLE12=Ooh! Ooh! My! My! Oh! Oh! - Hart, Clyde's All Stars
TTITLE13=Honeysuckle Rose - Stewart, Slam Quintet
TTITLE14=Mood To Be Stewed - Stewart, Slam Quintet
TTITLE15=The Voice Of The Turtle - Stewart, Slam Quintet
TTITLE16=Slammin' The Gate - Stewart, Slam Quintet
TTITLE17=Jingle Bells - Stewart, Slam Quintet
TTITLE18=On The Upside Looking Down - Stewart, Slam Quintet
TTITLE19=Time On My Hands - Stewart, Slam Quintet
TTITLE20=A Bell For Norvo - Stewart, Slam Quintet
TTITLE21=Haw, Haw - Stewart, Slam Quintet
TTITLE22=The One That Got Away - Stewart, Slam Quintet
TTITLE23=Talkin' Back - Stewart, Slam Quintet
TTITLE24=Dozin' - Stewart, Slam Quintet
EXTD=
EXTT0=
EXTT1=
EXTT2=
EXTT3=
EXTT4=
EXTT5=
EXTT6=
EXTT7=
EXTT8=
EXTT9=
EXTT10=
EXTT11=
EXTT12=
EXTT13=
EXTT14=
EXTT15=
EXTT16=
EXTT17=
EXTT18=
EXTT19=
EXTT20=
EXTT21=
EXTT22=
EXTT23=
EXTT24=
PLAYORDER=
